<svg xmlns="http://www.w3.org/2000/svg" xmlns:xlink="http://www.w3.org/1999/xlink" width="500" zoomAndPan="magnify" viewBox="0 0 375 374.999991" height="500" preserveAspectRatio="xMidYMid meet" version="1.2"><defs><clipPath id="1caaa5f708"><path d="M 81.035156 108 L 294 108 L 294 203.496094 L 81.035156 203.496094 Z M 81.035156 108 "/></clipPath><clipPath id="49a255d283"><path d="M 69.789062 197.808594 L 75.296875 197.808594 L 75.296875 203.316406 L 69.789062 203.316406 Z M 69.789062 197.808594 "/></clipPath><clipPath id="a49540fea1"><path d="M 72.542969 197.808594 C 71.023438 197.808594 69.789062 199.042969 69.789062 200.5625 C 69.789062 202.082031 71.023438 203.316406 72.542969 203.316406 C 74.0625 203.316406 75.296875 202.082031 75.296875 200.5625 C 75.296875 199.042969 74.0625 197.808594 72.542969 197.808594 Z M 72.542969 197.808594 "/></clipPath><clipPath id="ade7a93d81"><path d="M 58.859375 197.808594 L 64.367188 197.808594 L 64.367188 203.316406 L 58.859375 203.316406 Z M 58.859375 197.808594 "/></clipPath><clipPath id="09b581d23f"><path d="M 61.613281 197.808594 C 60.09375 197.808594 58.859375 199.042969 58.859375 200.5625 C 58.859375 202.082031 60.09375 203.316406 61.613281 203.316406 C 63.136719 203.316406 64.367188 202.082031 64.367188 200.5625 C 64.367188 199.042969 63.136719 197.808594 61.613281 197.808594 Z M 61.613281 197.808594 "/></clipPath><clipPath id="23b11db087"><path d="M 47.933594 197.808594 L 53.4375 197.808594 L 53.4375 203.316406 L 47.933594 203.316406 Z M 47.933594 197.808594 "/></clipPath><clipPath id="e906321f2b"><path d="M 50.6875 197.808594 C 49.164062 197.808594 47.933594 199.042969 47.933594 200.5625 C 47.933594 202.082031 49.164062 203.316406 50.6875 203.316406 C 52.207031 203.316406 53.4375 202.082031 53.4375 200.5625 C 53.4375 199.042969 52.207031 197.808594 50.6875 197.808594 Z M 50.6875 197.808594 "/></clipPath><clipPath id="3d13ff5c00"><path d="M 321.246094 197.808594 L 326.753906 197.808594 L 326.753906 203.316406 L 321.246094 203.316406 Z M 321.246094 197.808594 "/></clipPath><clipPath id="ecd26d62a0"><path d="M 324 197.808594 C 322.476562 197.808594 321.246094 199.042969 321.246094 200.5625 C 321.246094 202.082031 322.476562 203.316406 324 203.316406 C 325.519531 203.316406 326.753906 202.082031 326.753906 200.5625 C 326.753906 199.042969 325.519531 197.808594 324 197.808594 Z M 324 197.808594 "/></clipPath><clipPath id="93321d4cea"><path d="M 310.316406 197.808594 L 315.824219 197.808594 L 315.824219 203.316406 L 310.316406 203.316406 Z M 310.316406 197.808594 "/></clipPath><clipPath id="cfae89d25e"><path d="M 313.070312 197.808594 C 311.550781 197.808594 310.316406 199.042969 310.316406 200.5625 C 310.316406 202.082031 311.550781 203.316406 313.070312 203.316406 C 314.589844 203.316406 315.824219 202.082031 315.824219 200.5625 C 315.824219 199.042969 314.589844 197.808594 313.070312 197.808594 Z M 313.070312 197.808594 "/></clipPath><clipPath id="f36137373d"><path d="M 299.386719 197.808594 L 304.894531 197.808594 L 304.894531 203.316406 L 299.386719 203.316406 Z M 299.386719 197.808594 "/></clipPath><clipPath id="336a6e2198"><path d="M 302.140625 197.808594 C 300.621094 197.808594 299.386719 199.042969 299.386719 200.5625 C 299.386719 202.082031 300.621094 203.316406 302.140625 203.316406 C 303.660156 203.316406 304.894531 202.082031 304.894531 200.5625 C 304.894531 199.042969 303.660156 197.808594 302.140625 197.808594 Z M 302.140625 197.808594 "/></clipPath></defs><g id="7c7446717f"><g clip-rule="nonzero" clip-path="url(#1caaa5f708)"><path style=" stroke:none;fill-rule:evenodd;fill:#12229d;fill-opacity:1;" d="M 235.140625 188.929688 C 240.148438 188.929688 245.15625 188.929688 250.171875 188.929688 C 242.78125 168.183594 229.695312 166.113281 214.113281 172.269531 C 223.917969 171.421875 231.605469 175.433594 235.140625 188.929688 M 249.210938 137.359375 C 237.183594 133.71875 224.933594 131.519531 212.523438 130.445312 C 211.363281 128.464844 210.125 126.757812 208.800781 125.289062 C 215.773438 126.046875 222.445312 127.652344 229.085938 129.339844 C 221.578125 126.453125 214.035156 123.695312 205.988281 122.609375 C 198.132812 116.25 187.871094 116.464844 175.644531 118.246094 C 204.109375 109.667969 233.296875 118.597656 249.210938 137.359375 Z M 171.824219 182.496094 L 175.667969 182.496094 C 175.128906 160.507812 174.589844 138.511719 174.054688 116.519531 C 173.90625 110.503906 169.238281 107.527344 163.464844 108.316406 C 163.496094 109.976562 163.535156 111.640625 163.566406 113.300781 C 168.164062 112.894531 169.417969 114.332031 169.605469 118.34375 L 171.378906 156.519531 Z M 197.585938 147.917969 C 200.464844 147.917969 202.796875 150.894531 202.796875 154.574219 C 202.796875 157.066406 201.722656 159.242188 200.125 160.382812 L 200.085938 160.742188 C 200.050781 161.097656 200.078125 161.464844 200.253906 161.777344 C 201.136719 163.375 205.480469 162.828125 206.878906 162.628906 L 207.488281 162.542969 L 207.660156 163.761719 L 207.050781 163.847656 C 204.945312 164.144531 200.449219 164.671875 199.175781 162.375 C 198.941406 161.953125 198.847656 161.496094 198.847656 161.027344 C 198.445312 161.15625 198.023438 161.226562 197.585938 161.226562 C 194.710938 161.226562 192.378906 158.25 192.378906 154.574219 C 192.378906 153.515625 192.570312 152.515625 192.914062 151.628906 C 193.449219 153.179688 194.148438 154.640625 195.066406 155.992188 C 194.863281 153.730469 194.488281 151.523438 194.542969 149.179688 C 195.398438 148.386719 196.453125 147.917969 197.585938 147.917969 Z M 190.492188 134.054688 L 201.539062 134.054688 L 196.617188 135.542969 L 192.140625 135.542969 C 187.933594 135.542969 184.492188 138.988281 184.492188 143.191406 L 184.492188 165.15625 C 184.492188 169.367188 187.9375 172.804688 192.140625 172.804688 L 195.152344 172.804688 L 201.539062 174.292969 L 190.496094 174.292969 C 185.953125 174.292969 182.234375 170.574219 182.234375 166.03125 L 182.234375 142.316406 C 182.234375 137.769531 185.949219 134.054688 190.492188 134.054688 Z M 217.308594 185.046875 C 222.535156 184.632812 226.769531 189.921875 226.769531 196.855469 C 226.769531 197.265625 226.757812 197.679688 226.726562 198.085938 L 223.363281 198.085938 C 223.285156 191.25 219.078125 186.066406 213.902344 186.476562 C 213.695312 186.492188 213.492188 186.515625 213.292969 186.546875 C 214.507812 185.691406 215.871094 185.160156 217.308594 185.046875 Z M 217.695312 182.847656 C 224.03125 182.351562 229.175781 188.757812 229.175781 197.164062 C 229.175781 199.226562 228.863281 201.21875 228.304688 203.054688 L 206.644531 203.054688 C 206.371094 201.765625 206.21875 200.398438 206.21875 198.972656 C 206.21875 190.566406 211.355469 183.347656 217.695312 182.847656 Z M 203 203.058594 L 83.914062 203.058594 L 83.914062 196.886719 L 203.332031 182.578125 L 203.292969 185.054688 L 165.640625 189.394531 L 168.476562 196.777344 L 189.363281 196.871094 L 169.480469 199.382812 L 200.359375 199.382812 L 201.238281 192.980469 L 203.1875 191.699219 Z M 165.78125 118.664062 L 81.035156 160.726562 L 165.78125 129.035156 Z M 165.929688 169.265625 L 81.035156 192.417969 L 165.929688 179.636719 Z M 165.78125 135.757812 L 81.035156 170.183594 L 165.78125 146.128906 Z M 165.78125 153.621094 L 81.035156 181.898438 L 165.78125 163.996094 Z M 293.964844 203.277344 C 274.980469 202.378906 256 201.484375 237.011719 200.589844 C 242.003906 200.214844 246.992188 199.835938 251.984375 199.460938 C 252.046875 197.679688 252.109375 195.894531 252.171875 194.113281 C 263.722656 194.097656 275.269531 194.089844 286.820312 194.074219 C 277.09375 192.65625 267.363281 191.230469 257.632812 189.8125 C 255.304688 189.472656 254.320312 188.296875 254.222656 185.945312 L 253.898438 178.101562 C 261.882812 178.191406 269.800781 178.554688 277.683594 179.039062 C 269.832031 177.570312 261.878906 176.402344 253.792969 175.621094 L 253.710938 173.609375 C 261.699219 173.933594 269.695312 174.546875 277.683594 175.273438 C 269.675781 173.582031 261.660156 172.042969 253.605469 171.089844 L 253.480469 168.074219 C 261.738281 168.320312 269.765625 169.121094 277.636719 170.328125 C 269.859375 167.679688 261.722656 165.523438 253.304688 163.769531 C 244.453125 160.164062 235.167969 157.757812 225.804688 155.566406 C 235.652344 155.296875 245.304688 156.214844 254.769531 158.253906 C 242.808594 153.617188 229.5 151.679688 215.621094 150.882812 C 213.390625 145.648438 211.164062 140.410156 208.933594 135.179688 C 209.820312 135.179688 210.710938 135.183594 211.597656 135.183594 C 213.371094 138.03125 215.140625 140.878906 216.910156 143.726562 C 228.203125 145.210938 239.503906 146.699219 250.796875 148.179688 C 250.734375 146.082031 249.796875 144.074219 248.449219 142.105469 C 254.0625 144.789062 258.785156 149.679688 261.703125 159.019531 C 272.949219 163.167969 285.328125 166.484375 286.304688 178.140625 C 289.019531 179.777344 293.808594 186.292969 293.839844 189.667969 C 293.878906 194.199219 293.921875 198.734375 293.964844 203.277344 Z M 293.964844 203.277344 "/></g><g clip-rule="nonzero" clip-path="url(#49a255d283)"><g clip-rule="nonzero" clip-path="url(#a49540fea1)"><path style=" stroke:none;fill-rule:nonzero;fill:#050a30;fill-opacity:1;" d="M 69.789062 197.808594 L 75.296875 197.808594 L 75.296875 203.316406 L 69.789062 203.316406 Z M 69.789062 197.808594 "/></g></g><g clip-rule="nonzero" clip-path="url(#ade7a93d81)"><g clip-rule="nonzero" clip-path="url(#09b581d23f)"><path style=" stroke:none;fill-rule:nonzero;fill:#050a30;fill-opacity:1;" d="M 58.859375 197.808594 L 64.367188 197.808594 L 64.367188 203.316406 L 58.859375 203.316406 Z M 58.859375 197.808594 "/></g></g><g style="fill:#050a30;fill-opacity:1;"><g transform="translate(39.653421, 246.364393)"><path style="stroke:none" d="M 8.40625 0 L 1.6875 0 L 1.6875 -30.234375 C 1.6875 -31.160156 2.015625 -31.953125 2.671875 -32.609375 C 3.328125 -33.265625 4.117188 -33.59375 5.046875 -33.59375 C 5.960938 -33.59375 6.757812 -33.257812 7.4375 -32.59375 L 28.5625 -11.46875 L 28.5625 -33.59375 L 35.28125 -33.59375 L 35.28125 -3.359375 C 35.28125 -2.429688 34.953125 -1.640625 34.296875 -0.984375 C 33.640625 -0.328125 32.847656 0 31.921875 0 C 30.992188 0 30.195312 -0.335938 29.53125 -1.015625 L 8.40625 -22.140625 Z M 8.40625 0 "/></g></g><g style="fill:#050a30;fill-opacity:1;"><g transform="translate(76.613418, 246.364393)"><path style="stroke:none" d="M 8.40625 -33.59375 L 28.5625 -33.59375 C 29.789062 -33.59375 30.914062 -33.289062 31.9375 -32.6875 C 32.957031 -32.09375 33.769531 -31.285156 34.375 -30.265625 C 34.976562 -29.242188 35.28125 -28.113281 35.28125 -26.875 L 35.28125 0 L 28.5625 0 L 28.5625 -13.4375 L 8.40625 -13.4375 L 8.40625 0 L 1.6875 0 L 1.6875 -26.875 C 1.6875 -28.113281 1.984375 -29.242188 2.578125 -30.265625 C 3.179688 -31.285156 3.992188 -32.09375 5.015625 -32.6875 C 6.035156 -33.289062 7.164062 -33.59375 8.40625 -33.59375 Z M 8.40625 -26.875 L 8.40625 -20.15625 L 28.5625 -20.15625 L 28.5625 -26.875 Z M 8.40625 -26.875 "/></g></g><g style="fill:#050a30;fill-opacity:1;"><g transform="translate(113.573415, 246.364393)"><path style="stroke:none" d="M 35.28125 -26.875 L 35.28125 -20.15625 C 35.28125 -19.238281 34.953125 -18.445312 34.296875 -17.78125 C 33.640625 -17.125 32.847656 -16.796875 31.921875 -16.796875 C 32.847656 -16.796875 33.640625 -16.46875 34.296875 -15.8125 C 34.953125 -15.15625 35.28125 -14.363281 35.28125 -13.4375 L 35.28125 -6.71875 C 35.28125 -5.507812 34.976562 -4.394531 34.375 -3.375 C 33.769531 -2.351562 32.960938 -1.535156 31.953125 -0.921875 C 30.953125 -0.304688 29.820312 0 28.5625 0 L 1.6875 0 L 1.6875 -33.59375 L 28.5625 -33.59375 C 29.820312 -33.59375 30.953125 -33.285156 31.953125 -32.671875 C 32.960938 -32.054688 33.769531 -31.242188 34.375 -30.234375 C 34.976562 -29.234375 35.28125 -28.113281 35.28125 -26.875 Z M 28.5625 -26.875 L 8.40625 -26.875 L 8.40625 -20.15625 L 28.5625 -20.15625 Z M 8.40625 -6.71875 L 28.5625 -6.71875 L 28.5625 -13.4375 L 8.40625 -13.4375 Z M 8.40625 -6.71875 "/></g></g><g style="fill:#050a30;fill-opacity:1;"><g transform="translate(150.533412, 246.364393)"><path style="stroke:none" d="M 35.28125 0 L 1.6875 0 L 1.6875 -6.71875 L 15.125 -6.71875 L 15.125 -26.875 L 1.6875 -26.875 L 1.6875 -33.59375 L 35.28125 -33.59375 L 35.28125 -26.875 L 21.84375 -26.875 L 21.84375 -6.71875 L 35.28125 -6.71875 Z M 35.28125 0 "/></g></g><g style="fill:#050a30;fill-opacity:1;"><g transform="translate(187.493408, 246.364393)"><path style="stroke:none" d="M 35.28125 -6.71875 L 35.28125 0 L 5.046875 0 C 4.117188 0 3.328125 -0.328125 2.671875 -0.984375 C 2.015625 -1.640625 1.6875 -2.429688 1.6875 -3.359375 C 1.6875 -4.285156 2.019531 -5.082031 2.6875 -5.75 L 23.8125 -26.875 L 1.6875 -26.875 L 1.6875 -33.59375 L 31.921875 -33.59375 C 32.847656 -33.59375 33.640625 -33.265625 34.296875 -32.609375 C 34.953125 -31.953125 35.28125 -31.160156 35.28125 -30.234375 C 35.28125 -29.316406 34.941406 -28.519531 34.265625 -27.84375 L 13.140625 -6.71875 Z M 35.28125 -6.71875 "/></g></g><g style="fill:#050a30;fill-opacity:1;"><g transform="translate(224.453405, 246.364393)"><path style="stroke:none" d="M 8.40625 -33.59375 L 28.5625 -33.59375 C 29.789062 -33.59375 30.914062 -33.289062 31.9375 -32.6875 C 32.957031 -32.09375 33.769531 -31.285156 34.375 -30.265625 C 34.976562 -29.242188 35.28125 -28.113281 35.28125 -26.875 L 35.28125 0 L 28.5625 0 L 28.5625 -13.4375 L 8.40625 -13.4375 L 8.40625 0 L 1.6875 0 L 1.6875 -26.875 C 1.6875 -28.113281 1.984375 -29.242188 2.578125 -30.265625 C 3.179688 -31.285156 3.992188 -32.09375 5.015625 -32.6875 C 6.035156 -33.289062 7.164062 -33.59375 8.40625 -33.59375 Z M 8.40625 -26.875 L 8.40625 -20.15625 L 28.5625 -20.15625 L 28.5625 -26.875 Z M 8.40625 -26.875 "/></g></g><g style="fill:#050a30;fill-opacity:1;"><g transform="translate(261.413402, 246.364393)"><path style="stroke:none" d="M 28.5625 0 L 1.6875 0 L 1.6875 -33.59375 L 28.5625 -33.59375 C 29.789062 -33.59375 30.914062 -33.289062 31.9375 -32.6875 C 32.957031 -32.09375 33.769531 -31.285156 34.375 -30.265625 C 34.976562 -29.242188 35.28125 -28.113281 35.28125 -26.875 L 35.28125 -6.71875 C 35.28125 -5.488281 34.976562 -4.363281 34.375 -3.34375 C 33.769531 -2.320312 32.957031 -1.507812 31.9375 -0.90625 C 30.914062 -0.300781 29.789062 0 28.5625 0 Z M 8.40625 -26.875 L 8.40625 -6.71875 L 28.5625 -6.71875 L 28.5625 -26.875 Z M 8.40625 -26.875 "/></g></g><g style="fill:#050a30;fill-opacity:1;"><g transform="translate(298.373399, 246.364393)"><path style="stroke:none" d="M 8.40625 -33.59375 L 28.5625 -33.59375 C 29.789062 -33.59375 30.914062 -33.289062 31.9375 -32.6875 C 32.957031 -32.09375 33.769531 -31.285156 34.375 -30.265625 C 34.976562 -29.242188 35.28125 -28.113281 35.28125 -26.875 L 35.28125 0 L 28.5625 0 L 28.5625 -13.4375 L 8.40625 -13.4375 L 8.40625 0 L 1.6875 0 L 1.6875 -26.875 C 1.6875 -28.113281 1.984375 -29.242188 2.578125 -30.265625 C 3.179688 -31.285156 3.992188 -32.09375 5.015625 -32.6875 C 6.035156 -33.289062 7.164062 -33.59375 8.40625 -33.59375 Z M 8.40625 -26.875 L 8.40625 -20.15625 L 28.5625 -20.15625 L 28.5625 -26.875 Z M 8.40625 -26.875 "/></g></g><g style="fill:#12229d;fill-opacity:1;"><g transform="translate(101.139743, 262.87762)"><path style="stroke:none" d="M 4.984375 0.140625 C 4.066406 0.140625 3.320312 -0.0234375 2.75 -0.359375 C 2.175781 -0.703125 1.753906 -1.179688 1.484375 -1.796875 C 1.210938 -2.421875 1.078125 -3.148438 1.078125 -3.984375 L 1.078125 -10.21875 L 2.921875 -10.21875 L 2.921875 -4.1875 C 2.921875 -3.644531 2.976562 -3.179688 3.09375 -2.796875 C 3.207031 -2.421875 3.414062 -2.128906 3.71875 -1.921875 C 4.019531 -1.722656 4.441406 -1.625 4.984375 -1.625 C 5.535156 -1.625 5.960938 -1.722656 6.265625 -1.921875 C 6.566406 -2.128906 6.773438 -2.421875 6.890625 -2.796875 C 7.003906 -3.179688 7.0625 -3.644531 7.0625 -4.1875 L 7.0625 -10.21875 L 8.90625 -10.21875 L 8.90625 -4.0625 C 8.90625 -3.195312 8.769531 -2.445312 8.5 -1.8125 C 8.226562 -1.1875 7.800781 -0.703125 7.21875 -0.359375 C 6.644531 -0.0234375 5.898438 0.140625 4.984375 0.140625 Z M 4.984375 0.140625 "/></g></g><g style="fill:#12229d;fill-opacity:1;"><g transform="translate(112.306383, 262.87762)"><path style="stroke:none" d="M 1.3125 0 L 1.3125 -10.21875 L 3.796875 -10.21875 L 6.5 -2.953125 L 9.21875 -10.21875 L 11.6875 -10.21875 L 11.6875 0 L 9.921875 0 L 9.921875 -7.640625 L 7.390625 -0.890625 L 5.609375 -0.890625 L 3.078125 -7.640625 L 3.078125 0 Z M 1.3125 0 "/></g></g><g style="fill:#12229d;fill-opacity:1;"><g transform="translate(126.496278, 262.87762)"><path style="stroke:none" d="M 0.421875 0 L 0.421875 -1.265625 L 6.140625 -8.53125 L 0.75 -8.53125 L 0.75 -10.21875 L 8.671875 -10.21875 L 8.671875 -8.890625 L 3 -1.65625 L 8.671875 -1.65625 L 8.671875 0 Z M 0.421875 0 "/></g></g><g style="fill:#12229d;fill-opacity:1;"><g transform="translate(136.881791, 262.87762)"><path style="stroke:none" d="M 4.984375 0.140625 C 4.066406 0.140625 3.320312 -0.0234375 2.75 -0.359375 C 2.175781 -0.703125 1.753906 -1.179688 1.484375 -1.796875 C 1.210938 -2.421875 1.078125 -3.148438 1.078125 -3.984375 L 1.078125 -10.21875 L 2.921875 -10.21875 L 2.921875 -4.1875 C 2.921875 -3.644531 2.976562 -3.179688 3.09375 -2.796875 C 3.207031 -2.421875 3.414062 -2.128906 3.71875 -1.921875 C 4.019531 -1.722656 4.441406 -1.625 4.984375 -1.625 C 5.535156 -1.625 5.960938 -1.722656 6.265625 -1.921875 C 6.566406 -2.128906 6.773438 -2.421875 6.890625 -2.796875 C 7.003906 -3.179688 7.0625 -3.644531 7.0625 -4.1875 L 7.0625 -10.21875 L 8.90625 -10.21875 L 8.90625 -4.0625 C 8.90625 -3.195312 8.769531 -2.445312 8.5 -1.8125 C 8.226562 -1.1875 7.800781 -0.703125 7.21875 -0.359375 C 6.644531 -0.0234375 5.898438 0.140625 4.984375 0.140625 Z M 4.984375 0.140625 "/></g></g><g style="fill:#12229d;fill-opacity:1;"><g transform="translate(148.048431, 262.87762)"><path style="stroke:none" d="M 5.546875 0.140625 C 4.867188 0.140625 4.265625 0.0507812 3.734375 -0.125 C 3.203125 -0.3125 2.738281 -0.566406 2.34375 -0.890625 C 1.945312 -1.222656 1.617188 -1.609375 1.359375 -2.046875 C 1.097656 -2.492188 0.90625 -2.976562 0.78125 -3.5 C 0.65625 -4.019531 0.59375 -4.554688 0.59375 -5.109375 C 0.59375 -5.671875 0.65625 -6.210938 0.78125 -6.734375 C 0.90625 -7.253906 1.097656 -7.734375 1.359375 -8.171875 C 1.617188 -8.617188 1.941406 -9.007812 2.328125 -9.34375 C 2.722656 -9.675781 3.1875 -9.929688 3.71875 -10.109375 C 4.25 -10.296875 4.851562 -10.390625 5.53125 -10.390625 C 6.195312 -10.390625 6.816406 -10.273438 7.390625 -10.046875 C 7.960938 -9.828125 8.46875 -9.5 8.90625 -9.0625 C 9.34375 -8.625 9.703125 -8.085938 9.984375 -7.453125 L 8.359375 -6.765625 C 8.203125 -7.234375 7.984375 -7.613281 7.703125 -7.90625 C 7.421875 -8.207031 7.09375 -8.425781 6.71875 -8.5625 C 6.34375 -8.707031 5.941406 -8.78125 5.515625 -8.78125 C 4.972656 -8.78125 4.503906 -8.679688 4.109375 -8.484375 C 3.722656 -8.285156 3.40625 -8.019531 3.15625 -7.6875 C 2.90625 -7.351562 2.71875 -6.96875 2.59375 -6.53125 C 2.476562 -6.101562 2.421875 -5.65625 2.421875 -5.1875 C 2.421875 -4.675781 2.476562 -4.195312 2.59375 -3.75 C 2.71875 -3.3125 2.90625 -2.921875 3.15625 -2.578125 C 3.40625 -2.234375 3.726562 -1.96875 4.125 -1.78125 C 4.519531 -1.59375 4.992188 -1.5 5.546875 -1.5 C 6.035156 -1.5 6.484375 -1.601562 6.890625 -1.8125 C 7.296875 -2.019531 7.628906 -2.3125 7.890625 -2.6875 C 8.160156 -3.070312 8.328125 -3.523438 8.390625 -4.046875 L 6.078125 -4.046875 L 6.078125 -5.53125 L 10.171875 -5.53125 L 10.171875 0 L 8.71875 0 L 8.5625 -1.4375 C 8.375 -1.125 8.128906 -0.847656 7.828125 -0.609375 C 7.535156 -0.367188 7.191406 -0.179688 6.796875 -0.046875 C 6.410156 0.078125 5.992188 0.140625 5.546875 0.140625 Z M 5.546875 0.140625 "/></g></g><g style="fill:#12229d;fill-opacity:1;"><g transform="translate(160.328902, 262.87762)"><path style="stroke:none" d=""/></g></g><g style="fill:#12229d;fill-opacity:1;"><g transform="translate(165.072936, 262.87762)"><path style="stroke:none" d="M 9.59375 -0.5625 L 8.359375 0.546875 L 7.015625 -0.984375 C 6.597656 -0.628906 6.128906 -0.347656 5.609375 -0.140625 C 5.085938 0.0664062 4.523438 0.171875 3.921875 0.171875 C 3.453125 0.171875 3.015625 0.113281 2.609375 0 C 2.210938 -0.113281 1.859375 -0.273438 1.546875 -0.484375 C 1.242188 -0.703125 1.003906 -0.96875 0.828125 -1.28125 C 0.660156 -1.601562 0.578125 -1.972656 0.578125 -2.390625 C 0.578125 -2.773438 0.640625 -3.117188 0.765625 -3.421875 C 0.898438 -3.734375 1.078125 -4.015625 1.296875 -4.265625 C 1.523438 -4.515625 1.78125 -4.742188 2.0625 -4.953125 C 2.34375 -5.160156 2.632812 -5.351562 2.9375 -5.53125 C 2.832031 -5.644531 2.707031 -5.78125 2.5625 -5.9375 C 2.425781 -6.101562 2.296875 -6.285156 2.171875 -6.484375 C 2.046875 -6.691406 1.941406 -6.914062 1.859375 -7.15625 C 1.773438 -7.40625 1.734375 -7.664062 1.734375 -7.9375 C 1.734375 -8.3125 1.8125 -8.644531 1.96875 -8.9375 C 2.132812 -9.238281 2.351562 -9.492188 2.625 -9.703125 C 2.894531 -9.910156 3.195312 -10.066406 3.53125 -10.171875 C 3.875 -10.285156 4.21875 -10.34375 4.5625 -10.34375 C 4.9375 -10.34375 5.285156 -10.28125 5.609375 -10.15625 C 5.941406 -10.039062 6.226562 -9.875 6.46875 -9.65625 C 6.71875 -9.4375 6.914062 -9.179688 7.0625 -8.890625 C 7.207031 -8.609375 7.28125 -8.296875 7.28125 -7.953125 C 7.28125 -7.546875 7.191406 -7.175781 7.015625 -6.84375 C 6.847656 -6.519531 6.625 -6.226562 6.34375 -5.96875 C 6.070312 -5.707031 5.769531 -5.460938 5.4375 -5.234375 L 6.875 -3.609375 C 7.039062 -4.078125 7.125 -4.550781 7.125 -5.03125 L 8.84375 -4.859375 C 8.820312 -4.390625 8.742188 -3.9375 8.609375 -3.5 C 8.484375 -3.0625 8.304688 -2.648438 8.078125 -2.265625 Z M 3.4375 -7.90625 C 3.4375 -7.726562 3.484375 -7.539062 3.578125 -7.34375 C 3.679688 -7.144531 3.800781 -6.953125 3.9375 -6.765625 C 4.070312 -6.585938 4.191406 -6.4375 4.296875 -6.3125 C 4.546875 -6.46875 4.769531 -6.625 4.96875 -6.78125 C 5.175781 -6.945312 5.335938 -7.125 5.453125 -7.3125 C 5.578125 -7.5 5.640625 -7.703125 5.640625 -7.921875 C 5.640625 -8.109375 5.597656 -8.28125 5.515625 -8.4375 C 5.441406 -8.59375 5.320312 -8.71875 5.15625 -8.8125 C 5 -8.914062 4.804688 -8.96875 4.578125 -8.96875 C 4.378906 -8.96875 4.191406 -8.925781 4.015625 -8.84375 C 3.835938 -8.757812 3.695312 -8.640625 3.59375 -8.484375 C 3.488281 -8.328125 3.4375 -8.132812 3.4375 -7.90625 Z M 3.890625 -1.328125 C 4.304688 -1.328125 4.6875 -1.398438 5.03125 -1.546875 C 5.382812 -1.703125 5.695312 -1.910156 5.96875 -2.171875 L 4.046875 -4.390625 C 3.722656 -4.191406 3.425781 -3.988281 3.15625 -3.78125 C 2.894531 -3.582031 2.679688 -3.363281 2.515625 -3.125 C 2.359375 -2.894531 2.28125 -2.640625 2.28125 -2.359375 C 2.28125 -2.015625 2.425781 -1.753906 2.71875 -1.578125 C 3.019531 -1.410156 3.410156 -1.328125 3.890625 -1.328125 Z M 3.890625 -1.328125 "/></g></g><g style="fill:#12229d;fill-opacity:1;"><g transform="translate(176.254042, 262.87762)"><path style="stroke:none" d=""/></g></g><g style="fill:#12229d;fill-opacity:1;"><g transform="translate(180.998075, 262.87762)"><path style="stroke:none" d="M 3.34375 0 L 3.34375 -8.578125 L 0.140625 -8.578125 L 0.140625 -10.21875 L 8.375 -10.21875 L 8.375 -8.578125 L 5.1875 -8.578125 L 5.1875 0 Z M 3.34375 0 "/></g></g><g style="fill:#12229d;fill-opacity:1;"><g transform="translate(190.718183, 262.87762)"><path style="stroke:none" d="M 1.3125 0.015625 L 1.3125 -10.21875 L 4.625 -10.21875 C 5.101562 -10.21875 5.554688 -10.148438 5.984375 -10.015625 C 6.410156 -9.890625 6.785156 -9.695312 7.109375 -9.4375 C 7.429688 -9.175781 7.6875 -8.859375 7.875 -8.484375 C 8.0625 -8.109375 8.15625 -7.6875 8.15625 -7.21875 C 8.15625 -6.78125 8.066406 -6.382812 7.890625 -6.03125 C 7.722656 -5.6875 7.488281 -5.382812 7.1875 -5.125 C 6.882812 -4.875 6.539062 -4.679688 6.15625 -4.546875 L 9 0.015625 L 6.90625 0.015625 L 4.390625 -4.375 L 3.15625 -4.375 L 3.15625 0.015625 Z M 3.171875 -5.859375 L 4.78125 -5.859375 C 5.269531 -5.890625 5.648438 -6.019531 5.921875 -6.25 C 6.203125 -6.488281 6.34375 -6.800781 6.34375 -7.1875 C 6.34375 -7.601562 6.1875 -7.9375 5.875 -8.1875 C 5.570312 -8.445312 5.160156 -8.578125 4.640625 -8.578125 L 3.171875 -8.578125 Z M 3.171875 -5.859375 "/></g></g><g style="fill:#12229d;fill-opacity:1;"><g transform="translate(201.074765, 262.87762)"><path style="stroke:none" d="M 0.09375 0 L 4.1875 -10.21875 L 5.5625 -10.21875 L 9.625 0 L 7.640625 0 L 6.859375 -2.21875 L 2.890625 -2.21875 L 2.09375 0 Z M 3.515625 -3.796875 L 6.234375 -3.796875 L 4.875 -7.515625 Z M 3.515625 -3.796875 "/></g></g><g style="fill:#12229d;fill-opacity:1;"><g transform="translate(211.973796, 262.87762)"><path style="stroke:none" d="M 1.3125 0 L 1.3125 -10.21875 L 3.140625 -10.21875 L 7.4375 -3.0625 L 7.4375 -10.21875 L 9.203125 -10.21875 L 9.203125 0 L 7.359375 0 L 3.078125 -7.171875 L 3.078125 0 Z M 1.3125 0 "/></g></g><g style="fill:#12229d;fill-opacity:1;"><g transform="translate(223.675654, 262.87762)"><path style="stroke:none" d="M 4.234375 0.109375 C 3.785156 0.109375 3.34375 0.046875 2.90625 -0.078125 C 2.476562 -0.203125 2.082031 -0.382812 1.71875 -0.625 C 1.363281 -0.875 1.0625 -1.1875 0.8125 -1.5625 C 0.570312 -1.945312 0.410156 -2.390625 0.328125 -2.890625 L 2.140625 -3.34375 C 2.191406 -2.925781 2.316406 -2.582031 2.515625 -2.3125 C 2.710938 -2.039062 2.960938 -1.835938 3.265625 -1.703125 C 3.566406 -1.578125 3.898438 -1.515625 4.265625 -1.515625 C 4.628906 -1.515625 4.9375 -1.570312 5.1875 -1.6875 C 5.4375 -1.800781 5.625 -1.957031 5.75 -2.15625 C 5.882812 -2.351562 5.953125 -2.570312 5.953125 -2.8125 C 5.953125 -3.082031 5.878906 -3.3125 5.734375 -3.5 C 5.597656 -3.6875 5.410156 -3.847656 5.171875 -3.984375 C 4.941406 -4.117188 4.679688 -4.242188 4.390625 -4.359375 C 4.097656 -4.484375 3.796875 -4.601562 3.484375 -4.71875 C 3.171875 -4.84375 2.863281 -4.984375 2.5625 -5.140625 C 2.269531 -5.296875 2.003906 -5.484375 1.765625 -5.703125 C 1.535156 -5.921875 1.347656 -6.175781 1.203125 -6.46875 C 1.066406 -6.769531 1 -7.128906 1 -7.546875 C 1 -8.003906 1.082031 -8.40625 1.25 -8.75 C 1.425781 -9.101562 1.660156 -9.398438 1.953125 -9.640625 C 2.253906 -9.878906 2.59375 -10.0625 2.96875 -10.1875 C 3.351562 -10.3125 3.757812 -10.375 4.1875 -10.375 C 4.820312 -10.375 5.410156 -10.226562 5.953125 -9.9375 C 6.503906 -9.65625 6.957031 -9.203125 7.3125 -8.578125 L 5.78125 -7.640625 C 5.601562 -7.992188 5.367188 -8.265625 5.078125 -8.453125 C 4.785156 -8.640625 4.46875 -8.734375 4.125 -8.734375 C 3.882812 -8.734375 3.664062 -8.6875 3.46875 -8.59375 C 3.28125 -8.507812 3.128906 -8.382812 3.015625 -8.21875 C 2.898438 -8.050781 2.84375 -7.859375 2.84375 -7.640625 C 2.84375 -7.398438 2.910156 -7.191406 3.046875 -7.015625 C 3.191406 -6.847656 3.378906 -6.703125 3.609375 -6.578125 C 3.847656 -6.453125 4.113281 -6.332031 4.40625 -6.21875 C 4.695312 -6.101562 5 -5.984375 5.3125 -5.859375 C 5.625 -5.734375 5.925781 -5.59375 6.21875 -5.4375 C 6.519531 -5.28125 6.785156 -5.09375 7.015625 -4.875 C 7.253906 -4.65625 7.441406 -4.390625 7.578125 -4.078125 C 7.722656 -3.765625 7.796875 -3.398438 7.796875 -2.984375 C 7.796875 -2.492188 7.703125 -2.054688 7.515625 -1.671875 C 7.328125 -1.296875 7.066406 -0.972656 6.734375 -0.703125 C 6.410156 -0.429688 6.035156 -0.226562 5.609375 -0.09375 C 5.179688 0.0390625 4.722656 0.109375 4.234375 0.109375 Z M 4.234375 0.109375 "/></g></g><g style="fill:#12229d;fill-opacity:1;"><g transform="translate(233.084757, 262.87762)"><path style="stroke:none" d="M 1.3125 0 L 1.3125 -10.21875 L 4.515625 -10.21875 C 5.035156 -10.21875 5.515625 -10.148438 5.953125 -10.015625 C 6.398438 -9.890625 6.785156 -9.695312 7.109375 -9.4375 C 7.429688 -9.175781 7.679688 -8.859375 7.859375 -8.484375 C 8.035156 -8.109375 8.125 -7.679688 8.125 -7.203125 C 8.125 -6.722656 8.035156 -6.296875 7.859375 -5.921875 C 7.679688 -5.554688 7.429688 -5.25 7.109375 -5 C 6.785156 -4.75 6.398438 -4.554688 5.953125 -4.421875 C 5.515625 -4.296875 5.035156 -4.234375 4.515625 -4.234375 L 3.140625 -4.234375 L 3.140625 0 Z M 3.140625 -5.953125 L 4.515625 -5.953125 C 5.148438 -5.953125 5.609375 -6.054688 5.890625 -6.265625 C 6.171875 -6.484375 6.3125 -6.796875 6.3125 -7.203125 C 6.3125 -7.609375 6.164062 -7.925781 5.875 -8.15625 C 5.59375 -8.382812 5.140625 -8.5 4.515625 -8.5 L 3.140625 -8.5 Z M 3.140625 -5.953125 "/></g></g><g style="fill:#12229d;fill-opacity:1;"><g transform="translate(242.71084, 262.87762)"><path style="stroke:none" d="M 5.53125 0.140625 C 4.851562 0.140625 4.25 0.0507812 3.71875 -0.125 C 3.1875 -0.3125 2.722656 -0.566406 2.328125 -0.890625 C 1.941406 -1.222656 1.617188 -1.613281 1.359375 -2.0625 C 1.097656 -2.507812 0.90625 -2.988281 0.78125 -3.5 C 0.65625 -4.019531 0.59375 -4.554688 0.59375 -5.109375 C 0.59375 -5.671875 0.65625 -6.207031 0.78125 -6.71875 C 0.90625 -7.238281 1.097656 -7.71875 1.359375 -8.15625 C 1.617188 -8.601562 1.941406 -8.992188 2.328125 -9.328125 C 2.722656 -9.660156 3.1875 -9.914062 3.71875 -10.09375 C 4.25 -10.28125 4.851562 -10.375 5.53125 -10.375 C 6.195312 -10.375 6.796875 -10.28125 7.328125 -10.09375 C 7.867188 -9.914062 8.332031 -9.660156 8.71875 -9.328125 C 9.113281 -8.992188 9.4375 -8.601562 9.6875 -8.15625 C 9.945312 -7.71875 10.140625 -7.238281 10.265625 -6.71875 C 10.390625 -6.207031 10.453125 -5.671875 10.453125 -5.109375 C 10.453125 -4.554688 10.390625 -4.019531 10.265625 -3.5 C 10.140625 -2.988281 9.945312 -2.507812 9.6875 -2.0625 C 9.4375 -1.613281 9.113281 -1.222656 8.71875 -0.890625 C 8.332031 -0.566406 7.867188 -0.3125 7.328125 -0.125 C 6.796875 0.0507812 6.195312 0.140625 5.53125 0.140625 Z M 5.53125 -1.484375 C 6.070312 -1.484375 6.535156 -1.578125 6.921875 -1.765625 C 7.304688 -1.960938 7.613281 -2.226562 7.84375 -2.5625 C 8.070312 -2.90625 8.238281 -3.296875 8.34375 -3.734375 C 8.457031 -4.171875 8.515625 -4.628906 8.515625 -5.109375 C 8.515625 -5.597656 8.457031 -6.054688 8.34375 -6.484375 C 8.238281 -6.921875 8.070312 -7.304688 7.84375 -7.640625 C 7.613281 -7.984375 7.304688 -8.25 6.921875 -8.4375 C 6.535156 -8.632812 6.070312 -8.734375 5.53125 -8.734375 C 4.976562 -8.734375 4.507812 -8.632812 4.125 -8.4375 C 3.75 -8.25 3.441406 -7.984375 3.203125 -7.640625 C 2.972656 -7.304688 2.800781 -6.921875 2.6875 -6.484375 C 2.582031 -6.054688 2.53125 -5.597656 2.53125 -5.109375 C 2.53125 -4.628906 2.582031 -4.171875 2.6875 -3.734375 C 2.800781 -3.296875 2.972656 -2.90625 3.203125 -2.5625 C 3.441406 -2.226562 3.75 -1.960938 4.125 -1.765625 C 4.507812 -1.578125 4.976562 -1.484375 5.53125 -1.484375 Z M 5.53125 -1.484375 "/></g></g><g style="fill:#12229d;fill-opacity:1;"><g transform="translate(254.947915, 262.87762)"><path style="stroke:none" d="M 1.3125 0.015625 L 1.3125 -10.21875 L 4.625 -10.21875 C 5.101562 -10.21875 5.554688 -10.148438 5.984375 -10.015625 C 6.410156 -9.890625 6.785156 -9.695312 7.109375 -9.4375 C 7.429688 -9.175781 7.6875 -8.859375 7.875 -8.484375 C 8.0625 -8.109375 8.15625 -7.6875 8.15625 -7.21875 C 8.15625 -6.78125 8.066406 -6.382812 7.890625 -6.03125 C 7.722656 -5.6875 7.488281 -5.382812 7.1875 -5.125 C 6.882812 -4.875 6.539062 -4.679688 6.15625 -4.546875 L 9 0.015625 L 6.90625 0.015625 L 4.390625 -4.375 L 3.15625 -4.375 L 3.15625 0.015625 Z M 3.171875 -5.859375 L 4.78125 -5.859375 C 5.269531 -5.890625 5.648438 -6.019531 5.921875 -6.25 C 6.203125 -6.488281 6.34375 -6.800781 6.34375 -7.1875 C 6.34375 -7.601562 6.1875 -7.9375 5.875 -8.1875 C 5.570312 -8.445312 5.160156 -8.578125 4.640625 -8.578125 L 3.171875 -8.578125 Z M 3.171875 -5.859375 "/></g></g><g style="fill:#12229d;fill-opacity:1;"><g transform="translate(265.304497, 262.87762)"><path style="stroke:none" d="M 3.34375 0 L 3.34375 -8.578125 L 0.140625 -8.578125 L 0.140625 -10.21875 L 8.375 -10.21875 L 8.375 -8.578125 L 5.1875 -8.578125 L 5.1875 0 Z M 3.34375 0 "/></g></g><g clip-rule="nonzero" clip-path="url(#23b11db087)"><g clip-rule="nonzero" clip-path="url(#e906321f2b)"><path style=" stroke:none;fill-rule:nonzero;fill:#050a30;fill-opacity:1;" d="M 47.933594 197.808594 L 53.4375 197.808594 L 53.4375 203.316406 L 47.933594 203.316406 Z M 47.933594 197.808594 "/></g></g><g clip-rule="nonzero" clip-path="url(#3d13ff5c00)"><g clip-rule="nonzero" clip-path="url(#ecd26d62a0)"><path style=" stroke:none;fill-rule:nonzero;fill:#050a30;fill-opacity:1;" d="M 321.246094 197.808594 L 326.753906 197.808594 L 326.753906 203.316406 L 321.246094 203.316406 Z M 321.246094 197.808594 "/></g></g><g clip-rule="nonzero" clip-path="url(#93321d4cea)"><g clip-rule="nonzero" clip-path="url(#cfae89d25e)"><path style=" stroke:none;fill-rule:nonzero;fill:#050a30;fill-opacity:1;" d="M 310.316406 197.808594 L 315.824219 197.808594 L 315.824219 203.316406 L 310.316406 203.316406 Z M 310.316406 197.808594 "/></g></g><g clip-rule="nonzero" clip-path="url(#f36137373d)"><g clip-rule="nonzero" clip-path="url(#336a6e2198)"><path style=" stroke:none;fill-rule:nonzero;fill:#050a30;fill-opacity:1;" d="M 299.386719 197.808594 L 304.894531 197.808594 L 304.894531 203.316406 L 299.386719 203.316406 Z M 299.386719 197.808594 "/></g></g></g></svg>